<?xml version="1.0" encoding="utf-8"?>
<svg xmlns="http://www.w3.org/2000/svg">
  <symbol id="star-plus" viewBox="0 0 18.5 15.86"><path class="cls-1" d="M17.96 6.7h-2.15V4.49c0-.3-.25-.55-.55-.55h-.55c-.3 0-.55.25-.55.55V6.7h-2.14c-.3 0-.55.25-.55.55v.55c0 .3.25.55.55.55h2.14v2.09c0 .3.25.55.55.55h.55c.3 0 .55-.25.55-.55V8.35h2.15c.3 0 .55-.25.55-.55v-.55c0-.3-.25-.55-.55-.55Z"/><path class="cls-1" d="m13.77 14.7-.35-2.05-.08-.47a.504.504 0 0 0-.57-.41l-.49.08c-.27.05-.45.3-.41.57l.26 1.52-3.84-2.02-3.85 2.02.73-4.29-3.12-3.04 4.31-.63 1.93-3.9.92 1.86.04.09c.12.25.42.35.66.23l.45-.22c.25-.12.35-.42.23-.66L9.72 1.6 9.19.53a.994.994 0 0 0-1.78 0l-2.02 4.1-4.53.66C.05 5.41-.28 6.41.31 6.98l3.27 3.19-.77 4.51c-.14.81.72 1.42 1.44 1.04l4.05-2.13 4.05 2.13c.72.38 1.58-.23 1.44-1.04Z" fill="currentColor"/></symbol>
  <symbol id="star-minus" viewBox="0 0 18.5 15.86"><path class="cls-1" d="M17.96 6.7h-5.94c-.3 0-.55.25-.55.55v.55c0 .3.25.55.55.55h5.94c.3 0 .55-.25.55-.55v-.55c0-.3-.25-.55-.55-.55Z"/><path class="cls-1" d="m13.77 14.7-.35-2.05-.08-.47a.504.504 0 0 0-.57-.41l-.49.08c-.27.05-.45.3-.41.57l.26 1.52-3.84-2.02-3.85 2.02.73-4.29-3.12-3.04 4.31-.63 1.93-3.9 1.03 2.1.02-.03c.15.15.37.2.57.11l.45-.22c.25-.12.35-.42.23-.66L9.72 1.6 9.19.53a.994.994 0 0 0-1.78 0l-2.02 4.1-4.53.66C.05 5.41-.28 6.41.31 6.98l3.27 3.19-.77 4.51c-.14.81.72 1.42 1.44 1.04l4.05-2.13 4.05 2.13c.72.38 1.58-.23 1.44-1.04Z" fill="currentColor"/></symbol>
</svg>